<svg width="76" height="84" viewBox="0 0 76 84" fill="none" xmlns="http://www.w3.org/2000/svg">
<path d="M67.3718 56.8504L47.6363 52.2521L46.8473 48.9559C50.8628 46.1252 53.6351 41.4616 54.0935 36.1004C57.8593 33.9749 58.8928 28.8865 56.5229 25.3239C60.7915 22.9983 63.2162 19.1941 62.5494 14.3938C61.8172 9.12116 57.7447 4.79583 51.0826 2.21485C43.5488 -0.704056 32.6109 -1.1086 27.348 3.26637C25.7499 4.59496 24.0168 4.94772 22.3409 5.28877C20.5579 5.65159 18.5372 6.0629 17.1236 7.73683C15.6989 9.42411 15.2769 11.8804 15.755 15.7009C16.1777 19.0785 18.4377 22.3338 20.1958 24.4146C17.092 27.768 17.6865 33.3887 21.5563 35.8855C21.9508 41.2398 24.652 45.9172 28.6033 48.8L28.1706 52.2969L8.62817 56.8504C4.11385 57.8602 0.893311 61.8746 0.893311 66.5069V84H75.1068V66.5067C75.1067 61.8809 71.8924 57.8615 67.3718 56.8504ZM20.9038 10.929C21.2084 10.5683 22.2378 10.3589 23.3276 10.1371C25.2807 9.7396 27.9557 9.19521 30.5108 7.07105C33.7978 4.33834 42.5754 4.22488 49.2952 6.82829C52.1402 7.93061 57.0088 10.4676 57.6487 15.0744C58.1241 18.4975 55.5295 20.3967 53.4294 21.3585C52.4539 19.1891 50.5717 17.4657 48.2071 16.7627L47.7672 16.6317L47.3098 16.6674C43.4699 16.9668 39.5538 15.9478 36.2369 13.5273L34.5421 12.2909L33.1546 13.0749C30.6935 14.4657 28.0251 15.8457 27.3146 16.0982C25.0643 16.4416 23.3256 17.5117 22.359 19.043C21.5182 17.7585 20.8229 16.3548 20.6643 15.0863C20.2724 11.9559 20.7486 11.1129 20.9038 10.929ZM26.4539 34.5243V32.511L24.7328 31.9613C23.805 31.6649 23.157 30.6843 23.157 29.5767C23.157 28.469 23.805 27.4883 24.7327 27.1922L26.4539 26.6425V22.0637C26.4539 21.4977 27.018 21.1329 28.1303 20.9793C28.4593 20.934 29.406 20.803 34.2203 18.1472C38.113 20.7011 42.6163 21.8745 47.1572 21.6352C48.3842 22.1603 49.2128 23.3886 49.2128 24.7439V26.7063L51.1238 27.1529C52.1198 27.3856 52.8426 28.405 52.8426 29.5769C52.8426 30.7486 52.1198 31.7682 51.1238 32.0009L49.2128 32.4473V34.5244C49.2128 41.3447 44.108 46.8932 37.8333 46.8932C31.5588 46.8932 26.4539 41.3445 26.4539 34.5243ZM42.2931 51.1829L43.0303 54.2626L37.9452 72.2418L32.8968 54.3924L33.2969 51.1597C36.2239 52.0591 39.3559 52.0689 42.2931 51.1829ZM5.84071 79.0524V66.5069C5.84071 64.17 7.43383 62.184 9.71499 61.677L19.167 59.4749L16.2941 66.458L21.3537 69.2688L21.2004 74.3237L26.2602 79.0524H5.84071ZM33.506 79.0524L26.2133 72.2368L26.3899 66.4071L22.5439 64.2702L25.0838 58.0965L28.5726 57.2836L34.7292 79.0524H33.506ZM41.1604 79.0524L47.3239 57.2595L50.7943 58.068L53.346 64.2701L49.4999 66.4069L49.6765 72.2366L42.3838 79.0522H41.1604V79.0524ZM70.1591 79.0524H49.6297L54.6895 74.3237L54.5363 69.2688L59.5959 66.458L56.7115 59.4465C57.0954 59.5359 65.1076 61.4026 66.285 61.6769C68.5662 62.1838 70.1593 64.1698 70.1593 66.5067V79.0524H70.1591Z" fill="#07A7EB"/>
</svg>
