<svg width="85" height="85" viewBox="0 0 85 85" fill="none" xmlns="http://www.w3.org/2000/svg">
<path d="M8.74294 67.7856C9.45998 68.121 10.1333 68.437 10.9184 68.6825C7.14602 64.6549 4.99249 59.3197 4.99249 53.6588V31.963H12.7681V16.39H33.2412V31.963H41.0168V48.7392H54.8762V35.1398H51.2668V30.2178H82.3715V35.1398H78.762V66.879C80.2325 66.3369 82.0555 65.914 84.7 65.914V70.836C81.7492 70.836 80.3565 71.4899 78.745 72.2433C76.8734 73.1208 74.749 74.1174 70.6996 74.1174C66.6526 74.1174 64.5282 73.1208 62.6542 72.2433C61.0427 71.4899 59.65 70.836 56.6992 70.836C53.746 70.836 52.3557 71.4899 50.7417 72.2433C48.8702 73.1208 46.7458 74.1174 42.6988 74.1174C38.6518 74.1174 36.5274 73.1208 34.6558 72.2433C33.0443 71.4899 31.6516 70.836 28.6984 70.836C25.7476 70.836 24.3549 71.4899 22.7434 72.2433C20.8718 73.1208 18.7474 74.1174 14.7004 74.1174C10.651 74.1174 8.52661 73.1208 6.65503 72.2433C5.04353 71.4899 3.65077 70.836 0.697563 70.836V65.914C4.74699 65.914 6.86893 66.9081 8.74294 67.7856ZM39.7602 8.5172L54.6137 0.449951V6.07199H84.7V10.9624L54.6137 10.96V16.582L39.7602 8.5172ZM69.3628 44.1915H64.4383V39.2695H69.3628V44.1915ZM20.5096 56.6582H15.5852V51.7362H20.5096V56.6582ZM14.7004 79.5304C17.6512 79.5304 19.0439 78.8765 20.6554 78.123C22.5294 77.2456 24.6514 76.249 28.7008 76.249C32.7502 76.249 34.8722 77.2456 36.7462 78.123C38.3577 78.8765 39.7504 79.5304 42.7012 79.5304C45.6544 79.5304 47.0448 78.8765 48.6587 78.123C50.5303 77.2456 52.6546 76.249 56.7016 76.249C60.7486 76.249 62.873 77.2456 64.747 78.123C66.3585 78.8765 67.7513 79.5304 70.702 79.5304C73.6528 79.5304 75.0456 78.8765 76.6571 78.123C78.5287 77.2456 80.653 76.249 84.7 76.249V81.171C81.7492 81.171 80.3565 81.8225 78.745 82.5784C76.8734 83.4558 74.749 84.45 70.6996 84.45C66.6526 84.45 64.5282 83.4558 62.6542 82.5784C61.0427 81.8225 59.65 81.171 56.6992 81.171C53.746 81.171 52.3557 81.8225 50.7417 82.5784C48.8702 83.4558 46.7458 84.45 42.6988 84.45C38.6518 84.45 36.5274 83.4558 34.6558 82.5784C33.0443 81.8225 31.6516 81.171 28.6984 81.171C25.7476 81.171 24.3549 81.8225 22.7434 82.5784C20.8718 83.4558 18.7474 84.45 14.7004 84.45C10.651 84.45 8.52661 83.4558 6.65503 82.5784C5.04353 81.8225 3.65077 81.171 0.697563 81.171V76.249C4.74699 76.249 6.86893 77.2456 8.74294 78.123C10.3544 78.8765 11.7472 79.5304 14.7004 79.5304ZM9.9145 41.8435H20.5412V36.8875H9.9145V41.8435ZM28.3192 21.312H17.6901V31.9411H28.3192V21.312ZM36.0924 36.885H25.4632V43.5231L29.1359 48.7368H36.0924V36.885ZM73.8424 35.1398H59.7958V48.7392H73.8424V35.1398ZM28.6984 65.914C32.7478 65.914 34.8697 66.9081 36.7438 67.7856C38.3553 68.5415 39.748 69.1929 42.6988 69.1929C45.652 69.1929 47.0423 68.5415 48.6563 67.7856C50.5278 66.9081 52.6522 65.914 56.6992 65.914C60.7462 65.914 62.8706 66.9081 64.7446 67.7856C66.3561 68.5415 67.7488 69.1929 70.6996 69.1929C72 69.1929 72.9965 69.0665 73.84 68.8599V53.6588H26.5813L21.7273 46.7631H9.9145V53.6564C9.9145 59.1617 12.7583 65.2918 18.412 68.6995C19.2262 68.4491 19.9165 68.1259 20.653 67.7807C22.5294 66.9081 24.6514 65.914 28.6984 65.914Z" fill="#07A7EB"/>
</svg>
