<svg width="85" height="85" viewBox="0 0 85 85" fill="none" xmlns="http://www.w3.org/2000/svg">
<path d="M76.2571 67.7856C75.54 68.1211 74.8667 68.437 74.0816 68.6825C77.854 64.655 80.0075 59.3198 80.0075 53.6588V31.9631H72.2319V16.3901H51.7588V31.9631H43.9832V48.7393H30.1238V35.1399H33.7332V30.2179H2.62853V35.1399H6.23801V66.879C4.76748 66.337 2.94451 65.9141 0.299988 65.9141V70.8361C3.25077 70.8361 4.64352 71.4899 6.25502 72.2434C8.1266 73.1209 10.251 74.1174 14.3004 74.1174C18.3474 74.1174 20.4718 73.1209 22.3458 72.2434C23.9573 71.4899 25.35 70.8361 28.3008 70.8361C31.254 70.8361 32.6443 71.4899 34.2583 72.2434C36.1298 73.1209 38.2542 74.1174 42.3012 74.1174C46.3482 74.1174 48.4726 73.1209 50.3442 72.2434C51.9557 71.4899 53.3484 70.8361 56.3016 70.8361C59.2524 70.8361 60.6451 71.4899 62.2566 72.2434C64.1282 73.1209 66.2526 74.1174 70.2996 74.1174C74.349 74.1174 76.4734 73.1209 78.345 72.2434C79.9565 71.4899 81.3492 70.8361 84.3024 70.8361V65.9141C80.253 65.9141 78.1311 66.9082 76.2571 67.7856ZM45.2398 8.51726L30.3863 0.450012V6.07205H0.299988V10.9625L30.3863 10.96V16.5821L45.2398 8.51726ZM15.6372 44.1916H20.5617V39.2695H15.6372V44.1916ZM64.4904 56.6582H69.4148V51.7362H64.4904V56.6582ZM70.2996 79.5304C67.3488 79.5304 65.9561 78.8766 64.3446 78.1231C62.4706 77.2456 60.3486 76.2491 56.2992 76.2491C52.2498 76.2491 50.1278 77.2456 48.2538 78.1231C46.6423 78.8766 45.2496 79.5304 42.2988 79.5304C39.3456 79.5304 37.9552 78.8766 36.3413 78.1231C34.4697 77.2456 32.3454 76.2491 28.2984 76.2491C24.2514 76.2491 22.127 77.2456 20.253 78.1231C18.6415 78.8766 17.2487 79.5304 14.298 79.5304C11.3472 79.5304 9.95444 78.8766 8.34293 78.1231C6.47135 77.2456 4.34698 76.2491 0.299988 76.2491V81.1711C3.25077 81.1711 4.64352 81.8225 6.25502 82.5784C8.1266 83.4559 10.251 84.45 14.3004 84.45C18.3474 84.45 20.4718 83.4559 22.3458 82.5784C23.9573 81.8225 25.35 81.1711 28.3008 81.1711C31.254 81.1711 32.6443 81.8225 34.2583 82.5784C36.1298 83.4559 38.2542 84.45 42.3012 84.45C46.3482 84.45 48.4726 83.4559 50.3442 82.5784C51.9557 81.8225 53.3484 81.1711 56.3016 81.1711C59.2524 81.1711 60.6451 81.8225 62.2566 82.5784C64.1282 83.4559 66.2526 84.45 70.2996 84.45C74.349 84.45 76.4734 83.4559 78.345 82.5784C79.9565 81.8225 81.3492 81.1711 84.3024 81.1711V76.2491C80.253 76.2491 78.1311 77.2456 76.2571 78.1231C74.6456 78.8766 73.2528 79.5304 70.2996 79.5304ZM75.0855 41.8436H64.4588V36.8875H75.0855V41.8436ZM56.6808 21.3121H67.3099V31.9412H56.6808V21.3121ZM48.9076 36.8851H59.5368V43.5231L55.8641 48.7368H48.9076V36.8851ZM11.1576 35.1399H25.2042V48.7393H11.1576V35.1399ZM56.3016 65.9141C52.2522 65.9141 50.1303 66.9082 48.2562 67.7856C46.6447 68.5416 45.252 69.193 42.3012 69.193C39.348 69.193 37.9577 68.5416 36.3437 67.7856C34.4722 66.9082 32.3478 65.9141 28.3008 65.9141C24.2538 65.9141 22.1294 66.9082 20.2554 67.7856C18.6439 68.5416 17.2512 69.193 14.3004 69.193C13 69.193 12.0035 69.0666 11.16 68.86V53.6588H58.4187L63.2727 46.7632H75.0855V53.6564C75.0855 59.1618 72.2417 65.2918 66.588 68.6996C65.7738 68.4492 65.0835 68.1259 64.347 67.7808C62.4706 66.9082 60.3486 65.9141 56.3016 65.9141Z" fill="#07A7EB"/>
</svg>
