<svg width="206" height="50" viewBox="0 0 206 50" fill="none" xmlns="http://www.w3.org/2000/svg">
<g clip-path="url(#clip0)">
<path d="M79.8063 19.4862V7.35719H76.863L73.414 15.9588H73.3454L69.8964 7.35719H66.9531V19.4862H69.216V11.2993H69.2816L72.5807 19.3676H74.1756L77.4747 11.2993H77.5403V19.4862H79.8063ZM85.9207 19.6795C88.6455 19.6795 90.3872 17.9424 90.3872 14.9733C90.3872 12.0478 88.6175 10.2826 85.9207 10.2826C83.2209 10.2826 81.4543 12.0541 81.4543 14.9733C81.4543 17.933 83.1959 19.6795 85.9207 19.6795ZM85.9207 17.8051C84.7097 17.8051 83.945 16.7884 83.945 14.9826C83.945 13.1924 84.7253 12.157 85.9207 12.157C87.1162 12.157 87.8902 13.1924 87.8902 14.9826C87.8902 16.7915 87.1255 17.8051 85.9207 17.8051ZM97.0728 10.3356C95.7682 10.3356 94.7662 10.9906 94.2793 12.0478H94.2294V10.476H91.8073V22.4272H94.2606V17.9735H94.3137C94.7943 18.9903 95.7994 19.6296 97.1134 19.6296C99.3669 19.6296 100.765 17.88 100.765 14.9826C100.765 12.0759 99.3607 10.3356 97.0728 10.3356ZM96.2488 17.6554C95.0472 17.6554 94.2575 16.6138 94.2575 14.9857C94.2575 13.3702 95.0503 12.3036 96.2488 12.3036C97.4755 12.3036 98.2526 13.3546 98.2526 14.9857C98.2495 16.62 97.4755 17.6554 96.2488 17.6554ZM110.329 13.5542C110.095 11.6611 108.593 10.2826 106.274 10.2826C103.581 10.2826 101.873 12.0977 101.873 14.9733C101.873 17.8987 103.581 19.6795 106.293 19.6795C108.578 19.6795 110.119 18.4039 110.338 16.411H108.05C107.841 17.2593 107.235 17.7521 106.315 17.7521C105.097 17.7521 104.348 16.7291 104.348 14.9733C104.348 13.2486 105.097 12.2069 106.305 12.2069C107.242 12.2069 107.829 12.7683 108.031 13.5511H110.329V13.5542ZM116.409 14.6458L120.007 10.4791H117.198L114.205 14.1031H114.136V10.476H111.689V19.4862H114.136V15.6189H114.205L117.248 19.4862H120.217L116.409 14.6458ZM125.039 19.6795C127.764 19.6795 129.505 17.9424 129.505 14.9733C129.505 12.0478 127.739 10.2826 125.039 10.2826C122.339 10.2826 120.572 12.0541 120.572 14.9733C120.572 17.933 122.314 19.6795 125.039 19.6795ZM125.039 17.8051C123.828 17.8051 123.063 16.7884 123.063 14.9826C123.063 13.1924 123.843 12.157 125.039 12.157C126.231 12.157 127.008 13.1924 127.008 14.9826C127.008 16.7915 126.241 17.8051 125.039 17.8051ZM133.332 19.4862L136.915 13.7881H136.981V19.4862H139.387V10.476H136.981L133.397 16.1085H133.332V10.476H130.925V19.4862H133.332ZM132.271 6.39972C132.271 8.0558 133.457 9.16297 135.233 9.16297C136.999 9.16297 138.192 8.0558 138.192 6.39972H136.684C136.669 7.30105 136.104 7.94976 135.233 7.94976C134.349 7.94976 133.785 7.30105 133.769 6.39972H132.271ZM150.13 19.7575C153.014 19.7575 155.059 18.1108 155.452 15.5222H152.955C152.602 16.8165 151.56 17.5993 150.14 17.5993C148.195 17.5993 146.975 16.0025 146.975 13.4139C146.975 10.8565 148.214 9.25341 150.13 9.25341C151.525 9.25341 152.627 10.1173 152.946 11.4553H155.446C155.124 8.87292 152.955 7.09209 150.13 7.09209C146.613 7.09209 144.384 9.50915 144.384 13.4201C144.384 17.3373 146.6 19.7575 150.13 19.7575ZM161.023 12.1009C162.116 12.1009 162.865 12.8899 162.915 14.0439H159.088C159.169 12.9149 159.947 12.1009 161.023 12.1009ZM162.949 16.7291C162.721 17.4184 162.031 17.8644 161.133 17.8644C159.878 17.8644 159.063 16.9818 159.063 15.6968V15.544H165.278V14.7955C165.278 12.0572 163.62 10.2826 160.998 10.2826C158.33 10.2826 156.647 12.1476 156.647 15.0201C156.647 17.9018 158.311 19.6764 161.089 19.6764C163.321 19.6764 164.934 18.4913 165.203 16.726H162.949V16.7291ZM171.966 10.3356C170.662 10.3356 169.663 10.9906 169.173 12.0478H169.123V10.476H166.701V22.4272H169.157V17.9735H169.207C169.688 18.9903 170.696 19.6296 172.007 19.6296C174.26 19.6296 175.659 17.88 175.659 14.9826C175.659 12.0759 174.251 10.3356 171.966 10.3356ZM171.139 17.6554C169.938 17.6554 169.148 16.6138 169.148 14.9857C169.148 13.3702 169.941 12.3036 171.139 12.3036C172.369 12.3036 173.143 13.3546 173.143 14.9857C173.143 16.62 172.369 17.6554 171.139 17.6554ZM180.962 12.0323C181.77 12.0323 182.226 12.4127 182.226 13.0677C182.226 13.7476 181.739 14.1281 180.837 14.1281H179.51V12.0323H180.962ZM180.962 15.544C182.007 15.544 182.56 15.9495 182.56 16.7291C182.56 17.512 182.029 17.9299 181.071 17.9299H179.51V15.544H180.962ZM177.104 19.4862H181.704C183.749 19.4862 185.025 18.4632 185.025 16.882C185.025 15.7467 184.192 14.9047 182.99 14.7643V14.6957C183.917 14.5522 184.626 13.7102 184.626 12.7465C184.626 11.3274 183.496 10.476 181.623 10.476H177.107V19.4862H177.104ZM188.905 19.4862L192.488 13.7881H192.554V19.4862H194.96V10.476H192.554L188.971 16.1085H188.905V10.476H186.499V19.4862H188.905ZM204.833 13.5542C204.599 11.6611 203.097 10.2826 200.778 10.2826C198.085 10.2826 196.377 12.0977 196.377 14.9733C196.377 17.8987 198.085 19.6795 200.797 19.6795C203.082 19.6795 204.624 18.4039 204.842 16.411H202.554C202.345 17.2593 201.74 17.7521 200.819 17.7521C199.602 17.7521 198.852 16.7291 198.852 14.9733C198.852 13.2486 199.602 12.2069 200.809 12.2069C201.746 12.2069 202.333 12.7683 202.535 13.5511H204.833V13.5542Z" fill="black"/>
<path d="M67.9083 37.1136C69.3565 37.1136 70.1181 36.415 71.0513 34.2349L74.0633 27.2177H72.7898L70.2148 33.5893H70.1056L67.465 27.2177H66.1573L69.5157 34.9491C69.1287 35.6696 68.6449 35.9752 67.9051 35.9752C67.696 35.9752 67.4994 35.9534 67.362 35.9222V37.0231C67.4713 37.0793 67.6867 37.1136 67.9083 37.1136ZM77.0628 33.3149L80.3744 29.9622H78.9105L75.883 33.0966H75.8268V29.9622H74.6532V37.045H75.8268V33.6392H75.883L78.9417 37.045H80.468L77.0628 33.3149ZM84.9095 29.8374C83.8795 29.8374 83.0555 30.3645 82.6185 31.1598H82.5936V29.9622H81.4637V39.409H82.6497V35.8941H82.6778C83.0992 36.6707 83.917 37.1697 84.9345 37.1697C86.7198 37.1697 87.9402 35.7257 87.9402 33.5051C87.9433 31.2814 86.7136 29.8374 84.9095 29.8374ZM84.6754 36.1249C83.4644 36.1249 82.6435 35.0832 82.6435 33.5051C82.6435 31.9301 83.4613 30.8822 84.6754 30.8822C85.9364 30.8822 86.7292 31.9021 86.7292 33.5051C86.7292 35.1113 85.9364 36.1249 84.6754 36.1249ZM91.6014 36.1592C90.7493 36.1592 90.1843 35.7164 90.1843 35.0427C90.1843 34.3753 90.7306 33.9542 91.6825 33.8919L93.5771 33.7765V34.3566C93.5802 35.3764 92.7219 36.1592 91.6014 36.1592ZM91.3361 37.1697C92.2912 37.1697 93.1901 36.6364 93.6114 35.8286H93.6395V37.0481H94.7663V32.1516C94.7663 30.7388 93.7144 29.8406 92.054 29.8406C90.3779 29.8406 89.326 30.7824 89.2449 32.0081H90.3903C90.5402 31.3126 91.1113 30.8853 92.0259 30.8853C93.0059 30.8853 93.5802 31.4031 93.5802 32.267V32.8595L91.5483 32.9749C89.9128 33.0716 88.9764 33.8326 88.9764 35.0458C88.9764 36.3183 89.9284 37.1697 91.3361 37.1697ZM97.566 37.045L101.112 31.7711H101.165V37.045H102.338V29.9622H101.165L97.6222 35.2361H97.566V29.9622H96.3924V37.045H97.566ZM108.671 37.045H109.845V29.9622H108.671V32.8845H105.176V29.9622H104.002V37.045H105.176V33.8576H108.671V37.045ZM117.582 37.045H118.756V29.9622H117.582V37.045ZM114.009 33.1964C114.92 33.1964 115.522 33.7609 115.522 34.6341C115.522 35.498 114.929 36.0719 114.009 36.0719H112.685V33.1964H114.009ZM111.515 37.045H114.03C115.653 37.045 116.696 36.1124 116.696 34.6341C116.696 33.1558 115.653 32.2233 114.03 32.2233H112.688V29.9622H111.515V37.045Z" fill="black"/>
<path fill-rule="evenodd" clip-rule="evenodd" d="M25.6845 0.249481C32.4575 0.249481 38.5876 2.99402 43.0259 7.42893C47.4643 11.8639 50.211 17.9923 50.211 24.76C50.211 28.7552 49.2559 32.5258 47.5579 35.8567C47.0211 35.5448 46.3438 35.2423 45.3138 35.1862C45.1983 35.1799 45.0734 35.1768 44.9486 35.1768C43.4192 35.1768 42.6014 35.6883 41.9429 36.1C41.4029 36.4368 41.0127 36.6801 40.1326 36.6801C39.2524 36.6801 38.8622 36.4368 38.3223 36.1C38.0008 35.8972 37.6387 35.6727 37.1768 35.4949L39.602 28.7739L39.6051 28.7583C40.0545 27.4672 39.9734 26.3319 39.4147 25.3589C38.8716 24.417 37.904 23.7059 36.5494 23.2225L36.5182 23.21L36.3933 23.1695V15.201V14.0532H35.2447H30.669V10.7224V9.57466H29.5173H21.8516H20.6999V10.7224V14.0532H16.1242H14.9756V15.201V23.1695L14.8507 23.21L14.8195 23.2194C13.4649 23.7028 12.4974 24.4139 11.9543 25.3557C11.3924 26.3288 11.3144 27.464 11.7639 28.7552L11.767 28.7708L14.1922 35.4918C13.7271 35.6696 13.3682 35.8941 13.0436 36.0968C12.5036 36.4337 12.1134 36.6769 11.2333 36.6769C10.3531 36.6769 9.96293 36.4337 9.42296 36.0968C8.76438 35.6852 7.9435 35.1737 6.41411 35.1737C6.28926 35.1737 6.16753 35.1768 6.04893 35.183C5.02517 35.2423 4.34787 35.5417 3.81102 35.8536C2.1162 32.5227 1.15799 28.7521 1.15799 24.7569C1.15799 17.9892 3.90466 11.8639 8.34302 7.42582C12.7814 2.99402 18.9114 0.249481 25.6845 0.249481Z" fill="#07A7EB"/>
<path d="M20.8684 36.6769C19.9882 36.6769 19.5981 36.4337 19.0581 36.0968C18.3995 35.6852 17.5786 35.1737 16.0524 35.1737C14.523 35.1737 13.7052 35.6852 13.0435 36.0968C12.5036 36.4337 12.1134 36.6769 11.2332 36.6769C10.353 36.6769 9.96289 36.4337 9.42292 36.0968C8.76434 35.6852 7.94347 35.1737 6.41407 35.1737C6.28922 35.1737 6.1675 35.1768 6.04889 35.183C6.50459 36.0376 7.01647 36.8609 7.57516 37.6469C7.79677 37.7436 7.99653 37.8683 8.22125 38.0087C8.87983 38.4203 9.70071 38.9318 11.227 38.9318C12.7564 38.9318 13.5741 38.4203 14.2358 38.0087C14.7758 37.6718 15.1659 37.4286 16.0461 37.4286C16.9263 37.4286 17.3165 37.6718 17.8564 38.0087C18.515 38.4203 19.3359 38.9318 20.8622 38.9318C22.3916 38.9318 23.2093 38.4203 23.8679 38.0087C24.4079 37.6718 24.798 37.4286 25.6782 37.4286C26.5584 37.4286 26.9485 37.6718 27.4885 38.0087C28.1471 38.4203 28.968 38.9318 30.4942 38.9318C32.0205 38.9318 32.8414 38.4203 33.4999 38.0087C34.0399 37.6718 34.4301 37.4286 35.3103 37.4286C36.1904 37.4286 36.5806 37.6718 37.1206 38.0087C37.7791 38.4203 38.6 38.9318 40.1263 38.9318C41.6557 38.9318 42.4734 38.4203 43.1351 38.0087C43.363 37.8683 43.5627 37.7404 43.7843 37.6438C44.343 36.8609 44.8549 36.0376 45.3106 35.183C45.1951 35.1768 45.0703 35.1737 44.9454 35.1737C43.416 35.1737 42.5983 35.6852 41.9397 36.0968C41.3997 36.4337 41.0096 36.6769 40.1294 36.6769C39.2492 36.6769 38.8591 36.4337 38.3191 36.0968C37.6605 35.6852 36.8396 35.1737 35.3103 35.1737C33.784 35.1737 32.9631 35.6852 32.3045 36.0968C31.7646 36.4337 31.3744 36.6769 30.4942 36.6769C29.614 36.6769 29.2239 36.4337 28.6839 36.0968C28.0253 35.6852 27.2045 35.1737 25.6782 35.1737C24.1488 35.1737 23.331 35.6852 22.6725 36.0968C22.1387 36.4337 21.7486 36.6769 20.8684 36.6769Z" fill="black"/>
<path d="M20.8685 36.6769C19.9883 36.6769 19.5981 36.4337 19.0582 36.0968C18.3996 35.6852 17.5787 35.1737 16.0524 35.1737C14.523 35.1737 13.7053 35.6852 13.0436 36.0968C12.5036 36.4337 12.1135 36.6769 11.2333 36.6769C10.3531 36.6769 9.96296 36.4337 9.42299 36.0968C8.76441 35.6852 7.94353 35.1737 6.41414 35.1737C4.88475 35.1737 4.06699 35.6852 3.40841 36.0968C2.86844 36.4337 2.47829 36.6769 1.59811 36.6769H1.55441V38.9349H1.59811C3.1275 38.9349 3.94526 38.4235 4.60384 38.0118C5.14381 37.6749 5.53396 37.4317 6.41414 37.4317C7.29432 37.4317 7.68447 37.6749 8.22444 38.0118C8.88302 38.4235 9.7039 38.9349 11.2302 38.9349C12.7596 38.9349 13.5773 38.4235 14.239 38.0118C14.779 37.6749 15.1691 37.4317 16.0493 37.4317C16.9295 37.4317 17.3197 37.6749 17.8596 38.0118C18.5182 38.4235 19.3391 38.9349 20.8654 38.9349C22.3947 38.9349 23.2125 38.4235 23.8711 38.0118C24.411 37.6749 24.8012 37.4317 25.6814 37.4317C26.5616 37.4317 26.9517 37.6749 27.4917 38.0118C28.1503 38.4235 28.9711 38.9349 30.4974 38.9349C32.0237 38.9349 32.8446 38.4235 33.5031 38.0118C34.0431 37.6749 34.4333 37.4317 35.3134 37.4317C36.1936 37.4317 36.5838 37.6749 37.1237 38.0118C37.7823 38.4235 38.6032 38.9349 40.1295 38.9349C41.6589 38.9349 42.4766 38.4235 43.1383 38.0118C43.6783 37.6749 44.0684 37.4317 44.9486 37.4317C45.8288 37.4317 46.219 37.6749 46.7589 38.0118C47.4175 38.4235 48.2384 38.9349 49.7647 38.9349H49.8084V36.6769H49.7647C48.8845 36.6769 48.4943 36.4337 47.9544 36.0968C47.2958 35.6852 46.4749 35.1737 44.9455 35.1737C43.4161 35.1737 42.5984 35.6852 41.9398 36.0968C41.3998 36.4337 41.0097 36.6769 40.1295 36.6769C39.2493 36.6769 38.8591 36.4337 38.3192 36.0968C37.6606 35.6852 36.8397 35.1737 35.3103 35.1737C33.784 35.1737 32.9632 35.6852 32.3046 36.0968C31.7646 36.4337 31.3745 36.6769 30.4943 36.6769C29.6141 36.6769 29.224 36.4337 28.684 36.0968C28.0254 35.6852 27.2045 35.1737 25.6783 35.1737C24.1489 35.1737 23.3311 35.6852 22.6725 36.0968C22.1388 36.4337 21.7487 36.6769 20.8685 36.6769Z" fill="black"/>
<path d="M20.8684 42.0132C19.9882 42.0132 19.5981 41.7699 19.0581 41.4331C18.3995 41.0214 17.5787 40.5099 16.0524 40.5099C14.523 40.5099 13.7052 41.0214 13.0435 41.4331C12.5067 41.7668 12.1165 42.0101 11.2457 42.0132V44.2681C12.7658 44.265 13.5835 43.7566 14.239 43.3449C14.7789 43.0081 15.1691 42.7648 16.0493 42.7648C16.9295 42.7648 17.3196 43.0081 17.8596 43.3449C18.5182 43.7566 19.339 44.2681 20.8653 44.2681C22.3947 44.2681 23.2125 43.7566 23.871 43.3449C24.411 43.0081 24.8012 42.7648 25.6813 42.7648C26.5615 42.7648 26.9517 43.0081 27.4916 43.3449C28.1502 43.7566 28.9711 44.2681 30.4974 44.2681C32.0236 44.2681 32.8445 43.7566 33.5031 43.3449C34.0431 43.0081 34.4332 42.7648 35.3134 42.7648C36.1936 42.7648 36.5837 43.0081 37.1237 43.3449C37.7823 43.7566 38.6 44.265 40.1201 44.2681V42.0132C39.2492 42.0101 38.8591 41.7699 38.3222 41.4331C37.6637 41.0214 36.8428 40.5099 35.3134 40.5099C33.7871 40.5099 32.9662 41.0214 32.3077 41.4331C31.7677 41.7699 31.3775 42.0132 30.4974 42.0132C29.6172 42.0132 29.227 41.7699 28.6871 41.4331C28.0285 41.0214 27.2076 40.5099 25.6813 40.5099C24.1519 40.5099 23.3342 41.0214 22.6756 41.4331C22.1388 41.7699 21.7486 42.0132 20.8684 42.0132Z" fill="black"/>
<path d="M20.8685 47.3962H20.8404V49.6511H20.8685C22.3978 49.6511 23.2156 49.1396 23.8742 48.728C24.4141 48.3911 24.8043 48.1479 25.6845 48.1479C26.5647 48.1479 26.9548 48.3911 27.4948 48.728C28.1534 49.1396 28.9742 49.6511 30.5005 49.6511H30.5286V47.3962H30.5005C29.6203 47.3962 29.2302 47.153 28.6902 46.8161C28.0316 46.4045 27.2108 45.893 25.6845 45.893C24.1551 45.893 23.3373 46.4045 22.6788 46.8161C22.1388 47.1498 21.7486 47.3962 20.8685 47.3962Z" fill="black"/>
<path d="M20.6999 14.0532V10.7224V9.57465H21.8516H29.5204H30.6691V10.7224V14.0532H35.2448H36.3934V15.2009V23.1694L36.5182 23.21L36.5494 23.2193C37.904 23.6996 38.8716 24.4138 39.4147 25.3557C39.9765 26.3288 40.0545 27.464 39.6051 28.7552L39.602 28.7708L36.4808 37.4286L34.324 36.6582L37.4483 28.0005C37.6606 27.3767 37.6512 26.8777 37.4327 26.5003C37.1768 26.0543 36.6181 25.6832 35.7878 25.3869L26.8331 22.4864V36.0126H24.5359V22.4864L15.5842 25.3807C14.754 25.6801 14.1953 26.0512 13.9394 26.4972C13.7209 26.8746 13.7084 27.3736 13.9206 27.9973L17.045 36.6551L14.8882 37.4286L11.767 28.7708L11.7639 28.7552C11.3144 27.464 11.3924 26.3288 11.9543 25.3557C12.4974 24.4138 13.4649 23.7028 14.8195 23.2193L14.8508 23.21L14.9725 23.1694V15.2009V14.0532H16.1211H20.6999ZM34.0961 22.4272V16.3518H17.2728V22.4303L25.3349 19.8261L25.6845 19.7107L26.0341 19.823L34.0961 22.4272ZM28.3687 14.0532V11.8701H23.0002V14.0532H28.3687Z" fill="black"/>
<path fill-rule="evenodd" clip-rule="evenodd" d="M24.5359 26.3787V22.4865L15.5843 25.3807C14.754 25.6801 14.1953 26.0512 13.9394 26.4972C13.7209 26.8746 13.7084 27.3736 13.9207 27.9974L14.264 28.9423L24.5359 26.3787Z" fill="#07A7EB"/>
<path fill-rule="evenodd" clip-rule="evenodd" d="M26.8331 22.4865V26.3756L37.105 28.9392L37.4452 27.9942C37.6575 27.3705 37.6481 26.8715 37.4296 26.4941C37.1737 26.0481 36.615 25.677 35.7847 25.3807L26.8331 22.4865Z" fill="#07A7EB"/>
<path fill-rule="evenodd" clip-rule="evenodd" d="M25.6845 5.54205C36.3465 5.54205 44.9923 14.178 44.9923 24.8349C44.9923 29.248 43.5097 33.3117 41.0159 36.5615C40.7755 36.6333 40.4977 36.6738 40.1357 36.6738C39.2555 36.6738 38.8653 36.4305 38.3254 36.0937C38.0039 35.891 37.6418 35.6664 37.1799 35.4887L39.6051 28.7677L39.6082 28.7521C40.0576 27.4609 39.9765 26.3257 39.4178 25.3526C38.8747 24.4107 37.9071 23.6996 36.5525 23.2162L36.5182 23.21L36.3933 23.1694V15.2009V14.0532H35.2447H30.669V10.7224V9.57465H29.5173H21.8516H20.6999V10.7224V14.0532H16.1242H14.9756V15.2009V23.1694L14.8507 23.21L14.8195 23.2194C13.4649 23.7028 12.4973 24.4138 11.9543 25.3557C11.3924 26.3288 11.3144 27.464 11.7639 28.7552L11.767 28.7708L14.1922 35.4918C13.7271 35.6696 13.3682 35.8941 13.0436 36.0968C12.5036 36.4337 12.1134 36.6769 11.2333 36.6769C10.8712 36.6769 10.5934 36.6364 10.3531 36.5647C7.85922 33.3149 6.37665 29.248 6.37665 24.8349C6.37665 14.1811 15.0224 5.54205 25.6845 5.54205Z" fill="#45C7FF"/>
</g>
<defs>
<clipPath id="clip0">
<rect width="206" height="49.9006" fill="white"/>
</clipPath>
</defs>
</svg>
